<?xml version="1.0" encoding="utf-8"?>
<!-- Generator: Adobe Illustrator 16.0.0, SVG Export Plug-In . SVG Version: 6.00 Build 0)  -->
<!DOCTYPE svg PUBLIC "-//W3C//DTD SVG 1.1//EN" "http://www.w3.org/Graphics/SVG/1.1/DTD/svg11.dtd">
<svg version="1.1" id="SVG" xmlns="http://www.w3.org/2000/svg" xmlns:xlink="http://www.w3.org/1999/xlink" x="0px" y="0px"
	 width="220.801px" height="213.749px" viewBox="153.294 282.777 220.801 213.749"
	 enable-background="new 153.294 282.777 220.801 213.749" xml:space="preserve">
<g id="g3343" transform="matrix(-1,0,0,1,398.56128,602.20167)">
	<g id="g3345">
		<g id="use3347">
			<path id="a" fill="#FFFFFF" d="M61.847-146.343L61.847-146.343c19.457,15.377,45.029,24.737,73.026,24.734
				c17.269,0,33.625-3.584,48.18-9.916l54.531,25.85l-13.526-56.533c13.342-16.351,21.209-36.495,21.209-58.308
				c0-54.62-49.427-98.908-110.394-98.908c-24.174,0-46.513,6.959-64.706,18.752l-7.281,4.972l-7.205,6.268
				c-19.322,17.812-31.215,42.13-31.215,68.919c0,23.9,9.467,45.818,25.234,62.936 M231.47-219.644
				c0-47.244-43.243-85.514-96.596-85.514c-53.352,0-96.611,38.269-96.611,85.514c0,47.209,43.26,85.479,96.611,85.479
				c17.789,0,34.451-4.244,48.752-11.654l36.877,19.621l-11.17-39C223.166-179.983,231.47-198.944,231.47-219.644z"/>
		</g>
	</g>
</g>
</svg>
