
<svg version="1.1" id="SVG" xmlns="http://www.w3.org/2000/svg" xmlns:xlink="http://www.w3.org/1999/xlink" x="0px" y="0px"
	 width="303.6px" height="213.75px" viewBox="135.87 282.779 303.6 213.75" xml:space="preserve">
<g id="g3343" transform="matrix(-1,0,0,1,398.56128,602.20167)">
	<g id="g3345">
		<g id="use3347">
			<path id="a" fill="#FFFFFF" d="M142.512-146.343c7.547,1.566,15.447,2.4,23.584,2.4c17.284,0,33.523-3.791,47.557-10.436
				l38.729,20.213l-10.865-40.01c13.258-13.811,21.176-31.31,21.176-50.375c0-44.531-43.244-80.609-96.596-80.609
				c-11.186,0-21.916,1.601-31.906,4.488c-18.193-11.794-40.532-18.752-64.706-18.752c-60.967,0-110.393,44.288-110.393,98.908
				c0,21.813,7.867,41.957,21.209,58.308l-13.527,56.533l54.531-25.85c14.555,6.332,30.912,9.916,48.18,9.916
				C97.482-121.606,123.055-130.966,142.512-146.343L142.512-146.343z M148.678-289.433c0.033,0,0.084,0,0.135,0
				c5.576-0.975,11.354-1.461,17.283-1.461c45.721,0,82.799,29.989,82.799,66.971c0,16.421-7.328,31.485-19.475,43.14l-2.257,1.878
				l7.8,23.17l-22.625-12.629c-13.207,7.201-29.109,11.412-46.242,11.412c-3.79,0-7.529-0.209-11.168-0.592
				c-0.102-0.035-0.186-0.035-0.27-0.035c15.768-17.117,25.234-39.035,25.234-62.935C179.893-247.303,168-271.621,148.678-289.433
				L148.678-289.433z M-4.975-165.198l-11.17,39l36.877-19.621c14.301,7.41,30.963,11.654,48.752,11.654
				c53.352,0,96.612-38.27,96.612-85.479c0-47.245-43.26-85.514-96.612-85.514c-53.352,0-96.596,38.27-96.596,85.514
				C-27.112-198.944-18.807-179.983-4.975-165.198z"/>
		</g>
		<g id="use3349">
			<path id="a_1_" fill="#FFFFFF" d="M142.512-146.343c7.547,1.566,15.447,2.4,23.584,2.4c17.284,0,33.523-3.791,47.557-10.436
				l38.729,20.213l-10.865-40.01c13.258-13.811,21.176-31.31,21.176-50.375c0-44.531-43.244-80.609-96.596-80.609
				c-11.186,0-21.916,1.601-31.906,4.488c-18.193-11.794-40.532-18.752-64.706-18.752c-60.967,0-110.393,44.288-110.393,98.908
				c0,21.813,7.867,41.957,21.209,58.308l-13.527,56.533l54.531-25.85c14.555,6.332,30.912,9.916,48.18,9.916
				C97.482-121.606,123.055-130.966,142.512-146.343L142.512-146.343z M148.678-289.433c0.033,0,0.084,0,0.135,0
				c5.576-0.975,11.354-1.461,17.283-1.461c45.721,0,82.799,29.989,82.799,66.971c0,16.421-7.328,31.485-19.475,43.14l-2.257,1.878
				l7.8,23.17l-22.625-12.629c-13.207,7.201-29.109,11.412-46.242,11.412c-3.79,0-7.529-0.209-11.168-0.592
				c-0.102-0.035-0.186-0.035-0.27-0.035c15.768-17.117,25.234-39.035,25.234-62.935C179.893-247.303,168-271.621,148.678-289.433
				L148.678-289.433z M-4.975-165.198l-11.17,39l36.877-19.621c14.301,7.41,30.963,11.654,48.752,11.654
				c53.352,0,96.612-38.27,96.612-85.479c0-47.245-43.26-85.514-96.612-85.514c-53.352,0-96.596,38.27-96.596,85.514
				C-27.112-198.944-18.807-179.983-4.975-165.198z"/>
		</g>
	</g>
</g>
<g id="g4189">
	<path id="path4172" fill="#FFFFFF" d="M329.583,293.668c55.574,0,100.621,39.069,100.621,87.253
		c0,48.185-45.047,87.253-100.621,87.253c-55.592,0-100.639-39.068-100.639-87.253C228.944,332.738,273.991,293.668,329.583,293.668
		z"/>
	<path id="path4172-4" fill="#FFFFFF" d="M385.681,466.644c-13.123-12.002-19.205-28.631-13.545-37.086
		c5.645-8.454,20.855-5.566,33.996,6.436c13.123,12.039,19.188,28.633,13.543,37.088
		C414.032,481.535,398.804,478.648,385.681,466.644z"/>
</g>
</svg>
